<svg xmlns="http://www.w3.org/2000/svg" xmlns:xlink="http://www.w3.org/1999/xlink" width="61.348" height="61.348" viewBox="0 0 61.348 61.348">
  <defs>
    <clipPath id="clip-path">
      <rect id="Rectangle_1662" data-name="Rectangle 1662" width="28.545" height="26.688" fill="#df4028" stroke="#df4028" stroke-width="0.3"/>
    </clipPath>
  </defs>
  <g id="Group_192" data-name="Group 192" transform="translate(-795.567 -758.549)">
    <g id="Group_185" data-name="Group 185" transform="matrix(0.883, -0.469, 0.469, 0.883, -1463.036, -649.036)">
      <g id="Group_70" data-name="Group 70" transform="translate(1346.935 2324.178) rotate(48)">
        <g id="Group_63" data-name="Group 63" clip-path="url(#clip-path)">
          <path id="Path_377" data-name="Path 377" d="M3.859.749a1.409,1.409,0,0,0-1.5.58c-.342.413-.546,1.046-1.052,1.3a4.19,4.19,0,0,0-.818.343,1.276,1.276,0,0,0-.447.669,1.25,1.25,0,0,0,.613,1.4c.285.152.612.108.9.236a1.043,1.043,0,0,1,.408.482c.23.4.537.8,1.05.75.492-.044.81-.456,1.2-.709.494-.323.933,0,1.41.192a1.362,1.362,0,0,0,1.341-.085,3.8,3.8,0,0,0,.837-.97c.231-.324.506-.7.938-.725a2.413,2.413,0,0,0,.975-.117,1.162,1.162,0,0,0,.537-.568,1.134,1.134,0,0,0,.047-.811A.821.821,0,0,1,10.278,2c.2-.414.585-.833.432-1.33C10.544.139,9.958.025,9.468.013c-.719-.018-1.44-.018-2.159.008A14.961,14.961,0,0,0,5.128.246a2.4,2.4,0,0,0-1.606.7.735.735,0,0,0,.536,1.136,1.536,1.536,0,0,0,1.557-.574A.981.981,0,0,0,5.731.707.277.277,0,0,0,5.2.854c.153.52-.548.746-.944.7-.135-.014-.363-.073-.3-.253s.348-.288.508-.339A12.394,12.394,0,0,1,8.048.558,11.489,11.489,0,0,1,9.739.583c.154.022.371.068.436.232a.55.55,0,0,1-.1.432,2.314,2.314,0,0,0-.442,1.09c0,.244.145.447.164.684a.622.622,0,0,1-.284.55c-.228.146-.522.072-.778.086a1.386,1.386,0,0,0-.62.174,2.529,2.529,0,0,0-.751.762,4.043,4.043,0,0,1-.648.806.872.872,0,0,1-.972.047A2.4,2.4,0,0,0,4.5,5.1a2.169,2.169,0,0,0-1.039.585c-.26.21-.567.415-.829.1-.244-.3-.351-.677-.676-.91C1.522,4.561.843,4.776.6,4.2A.675.675,0,0,1,.7,3.532c.182-.241.472-.256.734-.359A2.366,2.366,0,0,0,2.487,2.114c.252-.4.666-1.031,1.225-.831.336.121.481-.414.147-.534" transform="translate(8.296 9.077)" fill="#df4028" stroke="#df4028" stroke-width="0.3"/>
          <path id="Path_378" data-name="Path 378" d="M2.789,7.317a3.626,3.626,0,0,1-.53-1.409,4.659,4.659,0,0,0-.874-1.351A7.9,7.9,0,0,1,.89,3.816C.765,3.6.527,3.293.544,3.037c.024-.35.539-.593.758-.817a1.354,1.354,0,0,0,.343-.571,2.053,2.053,0,0,1,.29-.78A.786.786,0,0,1,2.563.547c.231.018.351.205.434.4a2.72,2.72,0,0,0,.562,1.1c.067.059.189.1.241.172.069.093.028.277.011.383a2.9,2.9,0,0,1-.237.738c-.251.549-.585,1.059-.783,1.632A5.82,5.82,0,0,0,2.611,7.14c.016.355.57.357.554,0a5.236,5.236,0,0,1,.2-2.127c.214-.565.56-1.07.789-1.628.2-.482.449-1.274-.062-1.643a1,1,0,0,1-.4-.5,5.393,5.393,0,0,0-.277-.7A1.032,1.032,0,0,0,2.07.092a1.5,1.5,0,0,0-.678.589,4.888,4.888,0,0,0-.3.9c-.171.424-.7.607-.946.987-.343.529.011,1.1.291,1.567a8.542,8.542,0,0,0,.666.954,3.273,3.273,0,0,1,.583.843A5.014,5.014,0,0,0,2.4,7.708c.239.265.63-.127.391-.391" transform="translate(11.768 1.794)" fill="#df4028" stroke="#df4028" stroke-width="0.3"/>
          <path id="Path_379" data-name="Path 379" d="M.779,5.988A24.183,24.183,0,0,0,.557,2.05C.535,1.595.7.787,1.331,1.061a1.466,1.466,0,0,0,.7.2A1.187,1.187,0,0,0,2.77.838c.1-.11.251-.37.411-.235a2.905,2.905,0,0,1,.322.481,1.049,1.049,0,0,0,.5.361c.2.07.424.075.614.164s.121.272.1.44c-.04.352-.082.7-.123,1.056-.037.322-.061.649-.113.968-.016.1-.026.186-.125.235A.867.867,0,0,1,4,4.354,4.656,4.656,0,0,0,.64,5.575c-.249.255.142.647.391.391a3.411,3.411,0,0,1,1.575-.891,4.79,4.79,0,0,1,.9-.152,8.244,8.244,0,0,0,.865-.047c.739-.133.686-.918.755-1.508l.128-1.1a1.28,1.28,0,0,0-.072-.9.918.918,0,0,0-.556-.34,1.584,1.584,0,0,1-.6-.192c-.177-.141-.258-.4-.4-.569A.668.668,0,0,0,3.024,0c-.3.035-.475.267-.671.469a.6.6,0,0,1-.4.234A1.153,1.153,0,0,1,1.547.555,1.044,1.044,0,0,0,.155,1.1,2.183,2.183,0,0,0,.014,2.211c.032.409.085.817.132,1.225a11.1,11.1,0,0,1,.08,2.552c-.041.353.513.35.554,0" transform="translate(17.317 3.275)" fill="#df4028" stroke="#df4028" stroke-width="0.3"/>
          <path id="Path_380" data-name="Path 380" d="M.222,2.376a2.3,2.3,0,0,0,2.022-.409A12.615,12.615,0,0,1,4.31.909,7.423,7.423,0,0,1,5.419.576a.8.8,0,0,1,.463.011c.158.069.255.243.387.35a1.5,1.5,0,0,0,.893.256c.279.018.581.041.695.339.242.632-.332,1.222-.266,1.85a4.9,4.9,0,0,0,.3.888c.1.317-.091.48-.393.533-.334.058-.676-.016-1.012.048-.377.072-.592.353-.913.528a2.008,2.008,0,0,1-.984.187c-.3,0-.811.051-1.021-.2a6.975,6.975,0,0,1-.6-1.078,6.3,6.3,0,0,0-.7-1.041,2.659,2.659,0,0,0-2-1.016.277.277,0,0,0,0,.554A2.309,2.309,0,0,1,2.1,3.922a10.245,10.245,0,0,1,.6,1.027,2.578,2.578,0,0,0,.633.943,2.007,2.007,0,0,0,1.111.224A3.119,3.119,0,0,0,5.524,6,1.8,1.8,0,0,0,6,5.759a2.314,2.314,0,0,1,.479-.335,6.055,6.055,0,0,1,1.131-.083,1.059,1.059,0,0,0,.754-.471,1.074,1.074,0,0,0-.025-.964,3.408,3.408,0,0,1-.182-.471,1.027,1.027,0,0,1,.086-.614,2.83,2.83,0,0,0,.213-.969,1.262,1.262,0,0,0-.268-.827A1.239,1.239,0,0,0,7.3.648,2.623,2.623,0,0,1,6.8.6C6.612.542,6.522.4,6.384.269A1.144,1.144,0,0,0,5.377.023,8.283,8.283,0,0,0,2.828.977c-.707.382-1.6,1.219-2.458.865-.329-.136-.473.4-.147.534" transform="translate(18.374 9.253)" fill="#df4028" stroke="#df4028" stroke-width="0.3"/>
          <path id="Path_381" data-name="Path 381" d="M7.521,4.094A10.127,10.127,0,0,1,5.988,2.706a4.217,4.217,0,0,1-.566-.843c-.152-.3-.22-.633-.345-.946A1.4,1.4,0,0,0,3.6.011c-.315.04-.582.285-.9.215a2.8,2.8,0,0,0-.94-.179A1.3,1.3,0,0,0,.769,1.335a1.347,1.347,0,0,1-.063.452,2.574,2.574,0,0,1-.324.431A1.742,1.742,0,0,0,0,3.164a1.16,1.16,0,0,0,.288.822,1.151,1.151,0,0,0,.38.251c.073.037.066.027.09.095a1.668,1.668,0,0,1,.021.256c.109.7.894.887,1.485.775.4-.076.778-.234,1.177-.314a5.075,5.075,0,0,1,1.108-.1,3.448,3.448,0,0,1,2.067.678c.277.218.671-.171.392-.391a4.392,4.392,0,0,0-3.43-.772,6.081,6.081,0,0,0-.881.2,1.833,1.833,0,0,1-1.025.154c-.288-.087-.337-.257-.364-.527a.665.665,0,0,0-.132-.369c-.107-.131-.245-.152-.383-.234a.606.606,0,0,1-.2-.707,2.615,2.615,0,0,1,.5-.768,1.63,1.63,0,0,0,.234-.882A1,1,0,0,1,1.611.688c.234-.195.545-.039.8.035A1.212,1.212,0,0,0,3.272.7a.988.988,0,0,1,.794-.1.89.89,0,0,1,.53.6,6.668,6.668,0,0,0,.382,1,4.844,4.844,0,0,0,.572.835,9.9,9.9,0,0,0,1.58,1.444.286.286,0,0,0,.391,0,.279.279,0,0,0,0-.392" transform="translate(1.301 7.482)" fill="#df4028" stroke="#df4028" stroke-width="0.3"/>
          <path id="Path_382" data-name="Path 382" d="M6.695.056A5.362,5.362,0,0,1,4.279.333a4.522,4.522,0,0,0-2.385.06,1.427,1.427,0,0,0-.671.653,1.261,1.261,0,0,0-.114.5,1.893,1.893,0,0,1-.016.552c-.079.228-.376.326-.567.439a.993.993,0,0,0-.5.562.837.837,0,0,0,.236.775c.162.186.437.353.468.618.04.339-.114.667.007,1a.8.8,0,0,0,.721.516,2.389,2.389,0,0,0,.966-.224.785.785,0,0,1,.518-.058,1.96,1.96,0,0,1,.4.3c.663.491,1.219-.265,1.466-.826.172-.389.284-.8.427-1.2A11.736,11.736,0,0,1,5.76,2.77a12.414,12.414,0,0,1,.678-1.2q.175-.274.365-.538C6.893.9,7.07.56,7.244.554,7.6.542,7.6-.012,7.244,0s-.571.28-.775.554q-.341.455-.638.941a12.818,12.818,0,0,0-.989,1.99A7.98,7.98,0,0,1,4.066,5.4c-.064.086-.187.267-.312.244s-.238-.181-.32-.246A1.061,1.061,0,0,0,2.5,5.191a6.888,6.888,0,0,1-.894.271c-.361.028-.387-.221-.354-.521a1.372,1.372,0,0,0-.106-.9,6.516,6.516,0,0,0-.511-.575C.5,3.288.568,3.168.74,3.057a4.423,4.423,0,0,0,.624-.4,1,1,0,0,0,.306-.774c0-.34-.027-.619.256-.86C2.555.494,3.587.835,4.32.89A5.7,5.7,0,0,0,6.842.59C7.17.46,7.027-.075,6.695.056" transform="translate(1.415 13.698)" fill="#df4028" stroke="#df4028" stroke-width="0.3"/>
          <path id="Path_383" data-name="Path 383" d="M1.858.7c-.026.851-.724,1.508-1.2,2.151a3.588,3.588,0,0,0-.6,1.129c-.117.411-.1.958.406,1.071a1.047,1.047,0,0,0,.291.012c.034,0,.214-.041.241-.011,0,0-.039.192-.041.237A1.2,1.2,0,0,0,1,5.654a1.026,1.026,0,0,0,.953.8c.549-.014.9-.512,1.219-.89.349-.413.929-.874.662-1.468C3.3,2.885,2.254,1.771,2.472.348,2.525,0,1.992-.151,1.938.2a4.749,4.749,0,0,0,.8,3.046c.123.218.25.433.372.651.068.12.143.24.2.365a.28.28,0,0,1-.062.358c-.167.21-.347.411-.52.616A3.011,3.011,0,0,1,2.2,5.8c-.372.259-.687-.1-.688-.482,0-.229.064-.429-.094-.626a.587.587,0,0,0-.494-.2c-.1,0-.325.069-.374-.026-.066-.13.062-.417.11-.538a4.068,4.068,0,0,1,.588-.949A4.094,4.094,0,0,0,2.411.7C2.422.34,1.868.34,1.858.7" transform="translate(10.204 14.527)" fill="#df4028" stroke="#df4028" stroke-width="0.3"/>
          <path id="Path_384" data-name="Path 384" d="M.03.533a10.011,10.011,0,0,1,.6,3.495c.046.49.041,1.232.519,1.526a.692.692,0,0,0,.659.052A.6.6,0,0,0,2.045,5.4a1.794,1.794,0,0,0,.16-.327l-.1,0q.025.055.048.111c.027.061.054.121.087.179a1.234,1.234,0,0,0,.2.264.754.754,0,0,0,.744.195c.578-.166.69-.777.673-1.3,0-.137-.018-.258.087-.359.075-.071.173-.116.249-.187a.718.718,0,0,0,.205-.716c-.148-.564-.712-.7-1.146-.982C2.287,1.67,1.779.555.744.032.427-.128.146.35.464.51a8.8,8.8,0,0,1,1.9,1.775,4.806,4.806,0,0,0,1.107.749c.15.08.453.255.38.475-.023.07-.1.108-.157.149a1.044,1.044,0,0,0-.281.265,1.031,1.031,0,0,0-.123.6c.008.236.04.559-.182.716s-.34-.043-.429-.217c-.1-.19-.152-.4-.374-.479a.516.516,0,0,0-.578.232c-.076.114-.109.435-.3.3-.152-.112-.167-.4-.191-.568-.039-.278-.063-.558-.085-.837A9.312,9.312,0,0,0,.508.253C.354-.067-.124.213.03.533" transform="translate(15.333 14.042)" fill="#df4028" stroke="#df4028" stroke-width="0.3"/>
          <path id="Path_385" data-name="Path 385" d="M4.274,6.176a6.056,6.056,0,0,1-.212-2.018c.01-.314.03-.628.047-.942a4.945,4.945,0,0,0,.007-.986,1.02,1.02,0,0,0-.253-.578.645.645,0,0,0-.292-.169c-.091-.024-.283.03-.358-.011s-.093-.232-.114-.3A1.8,1.8,0,0,0,2.955.808,1.622,1.622,0,0,0,2.413.237,1.538,1.538,0,0,0,.889.17,1.633,1.633,0,0,0,.027,1.454a4.994,4.994,0,0,0-.008.953c.018.327.024.658.063.984a1.619,1.619,0,0,0,.89,1.26,9.542,9.542,0,0,1,1.542.894A4.52,4.52,0,0,1,3.688,7.07c.153.322.631.041.478-.28A4.938,4.938,0,0,0,2.112,4.6,5.246,5.246,0,0,1,.9,3.921C.519,3.549.6,2.9.573,2.407A2,2,0,0,1,.857.873,1,1,0,0,1,2.078.681a1.049,1.049,0,0,1,.429.464,3.889,3.889,0,0,0,.237.623.6.6,0,0,0,.556.258c.093,0,.127-.02.191.043a.539.539,0,0,1,.088.294,5.9,5.9,0,0,1-.027.94c-.019.342-.04.684-.047,1.027A6.264,6.264,0,0,0,3.74,6.324c.106.339.641.194.534-.147" transform="translate(6.689 3.765)" fill="#df4028" stroke="#df4028" stroke-width="0.3"/>
          <path id="Path_386" data-name="Path 386" d="M0,1.5Q-.008,2.7.02,3.891c.019.779.023,1.569.1,2.345a1.9,1.9,0,0,0,.913,1.637,1.139,1.139,0,0,0,.906.051,2.645,2.645,0,0,1,.933-.3c.594,0,1.3.152,1.72-.4a1.4,1.4,0,0,0,.218-.863,1.14,1.14,0,0,1,.172-.795,6.824,6.824,0,0,1,.65-.54,1.5,1.5,0,0,0,.449-.752,1.427,1.427,0,0,0-.5-1.694c-.335-.183-.71-.3-1.054-.464a11.748,11.748,0,0,1-1.049-.572A11.589,11.589,0,0,1,1.576.077C1.317-.167.925.224,1.185.469A12.128,12.128,0,0,0,4.283,2.6c.271.129.549.241.825.358.308.13.476.261.488.615a1.593,1.593,0,0,1-.133.779,1.93,1.93,0,0,1-.594.566,1.639,1.639,0,0,0-.461.5,1.663,1.663,0,0,0-.151.795,1.064,1.064,0,0,1-.116.686.926.926,0,0,1-.761.191,3.382,3.382,0,0,0-.911.013c-.287.064-.526.27-.812.327-.662.13-.93-.7-.982-1.2-.08-.76-.082-1.536-.1-2.3Q.544,2.718.557,1.5A.277.277,0,0,0,0,1.5" transform="translate(15.005 13.401)" fill="#df4028" stroke="#df4028" stroke-width="0.3"/>
          <path id="Path_387" data-name="Path 387" d="M1.955.665C1.546,1.31,1.132,1.953.73,2.6A4.339,4.339,0,0,0,.008,4.422,1.179,1.179,0,0,0,.682,5.734c.254.076.479.014.64.259a4.421,4.421,0,0,1,.3.658,1.614,1.614,0,0,0,1.243.958,1.854,1.854,0,0,0,.959-.04,1.91,1.91,0,0,0,.731-.517C5.275,6.3,6.53,5.716,6.5,4.511a5.131,5.131,0,0,0-.8-2.037A7.49,7.49,0,0,1,5.018.2.279.279,0,0,0,4.677.008a.284.284,0,0,0-.193.341,7.745,7.745,0,0,0,.473,1.815c.218.548.528,1.043.774,1.576a1.42,1.42,0,0,1-.019,1.5,5.719,5.719,0,0,1-1.063.959c-.383.319-.7.841-1.228.9a1.231,1.231,0,0,1-1.289-.645,2.447,2.447,0,0,0-.609-1.043.867.867,0,0,0-.239-.126C1.138,5.23.968,5.257.829,5.2a.549.549,0,0,1-.272-.479,3.07,3.07,0,0,1,.63-1.8c.407-.663.83-1.316,1.246-1.973.191-.3-.288-.58-.478-.279" transform="translate(8.632 14.788)" fill="#df4028" stroke="#df4028" stroke-width="0.3"/>
          <path id="Path_388" data-name="Path 388" d="M9.824,1.525A3.261,3.261,0,0,0,7.975,2.8a7.521,7.521,0,0,0-.8,2.573,3.911,3.911,0,0,1-1.4,2.123,1.876,1.876,0,0,1-1.185.37c-.478-.018-.944-.157-1.424-.151-.4.005-.889.209-1.277.065-.367-.136-.406-.595-.389-.93a3.892,3.892,0,0,0-.008-1.36,3.279,3.279,0,0,0-.535-.932,1.536,1.536,0,0,1-.4-.906,1.3,1.3,0,0,1,.44-.786,7.72,7.72,0,0,0,.7-.768,3.518,3.518,0,0,0,.41-1.01c.158-.471.554-.53,1-.531.572,0,1.144.016,1.716.033Q6.605.641,8.386.775c.355.027.354-.527,0-.554Q6.7.095,5,.039,4.18.012,3.357,0A2.285,2.285,0,0,0,2.079.219a1.643,1.643,0,0,0-.6,1.042A2.085,2.085,0,0,1,.9,2.168C.388,2.693-.189,3.274.06,4.076a3.562,3.562,0,0,0,.567.965A1.7,1.7,0,0,1,1,6.229a3.388,3.388,0,0,0,.028,1.345,1.107,1.107,0,0,0,.846.77,8.581,8.581,0,0,0,1.374-.077c.52.011,1.027.176,1.549.15A2.991,2.991,0,0,0,6.978,7.034a4.745,4.745,0,0,0,.7-1.406c.167-.547.21-1.123.363-1.674a2.684,2.684,0,0,1,1.932-1.9.277.277,0,0,0-.147-.534" transform="translate(0 12.824)" fill="#df4028" stroke="#df4028" stroke-width="0.3"/>
          <path id="Path_389" data-name="Path 389" d="M1.55,6.4C.715,6.034.633,4.931.573,4.14A4.088,4.088,0,0,1,.8,2.38a4.776,4.776,0,0,1,.63-1.322A.913.913,0,0,1,1.876.723,2.387,2.387,0,0,1,2.72.8a5.856,5.856,0,0,0,1.49-.2A1.262,1.262,0,0,1,5.488.915a6.772,6.772,0,0,1,.7,1.31A19.7,19.7,0,0,0,8.413,5.381c.224.277.614-.116.392-.391A18.174,18.174,0,0,1,6.59,1.8,4.362,4.362,0,0,0,5.742.384,1.764,1.764,0,0,0,4.273.027a5.554,5.554,0,0,1-1.716.19A1.819,1.819,0,0,0,1.729.189a1.358,1.358,0,0,0-.606.386A4.341,4.341,0,0,0,.357,2,4.526,4.526,0,0,0,0,3.876c.043,1.04.168,2.52,1.267,3,.323.142.605-.335.279-.478" transform="translate(0.661 6.508)" fill="#df4028" stroke="#df4028" stroke-width="0.3"/>
          <path id="Path_390" data-name="Path 390" d="M.588,4.051C.414,3.669.738,3.2.9,2.871c.2-.411.326-.851.5-1.272A1.869,1.869,0,0,1,2.121.67,1.218,1.218,0,0,1,3.2.7,2,2,0,0,0,4.384.847c.186-.047.311-.1.46.046a1.806,1.806,0,0,1,.3.521,16.009,16.009,0,0,1,.891,2.718q.435,1.663.868,3.326a.277.277,0,0,0,.534-.147Q7,5.607,6.551,3.9A13.741,13.741,0,0,0,5.5.885.989.989,0,0,0,4.48.249a1.557,1.557,0,0,1-.651.068C3.592.268,3.369.167,3.14.1a1.573,1.573,0,0,0-1.27.08,2.18,2.18,0,0,0-.854.949c-.27.542-.424,1.13-.7,1.673A1.7,1.7,0,0,0,.11,4.33c.148.324.626.042.478-.279" transform="translate(5.066 2.208)" fill="#df4028" stroke="#df4028" stroke-width="0.3"/>
          <path id="Path_391" data-name="Path 391" d="M.483,4.345a4.324,4.324,0,0,0,.976-1.194,6.79,6.79,0,0,0,.507-1.368A1.657,1.657,0,0,1,2.7.671,1.306,1.306,0,0,1,3.743.647c.408.166.552.508.746.874A1.452,1.452,0,0,0,4.865,2c.223.174.508.2.739.355a1.759,1.759,0,0,1,.532,1.357,4.859,4.859,0,0,1-.259,1.707C5.491,6.648,4.8,7.761,4.512,9.024c-.079.347.454.5.534.147C5.329,7.935,6,6.843,6.387,5.645a3.935,3.935,0,0,0-.152-3.439,1.359,1.359,0,0,0-.62-.455,1.014,1.014,0,0,1-.6-.424A2.482,2.482,0,0,0,4.159.237a1.782,1.782,0,0,0-2.33.489A7.054,7.054,0,0,0,1.2,2.4,3.8,3.8,0,0,1,.091,3.954c-.271.232.122.622.391.391" transform="translate(10.615 0)" fill="#df4028" stroke="#df4028" stroke-width="0.3"/>
          <path id="Path_392" data-name="Path 392" d="M2.684,4.1a5.414,5.414,0,0,0-.346-1.083,3.675,3.675,0,0,0-.667-.894A7.626,7.626,0,0,1,.507.143C.357-.18-.121.1.028.422a8.669,8.669,0,0,0,1.12,1.936,5.076,5.076,0,0,1,.653.815A4.342,4.342,0,0,1,2.15,4.242c.081.347.615.2.534-.147" transform="translate(11.441 5.688)" fill="#df4028" stroke="#df4028" stroke-width="0.3"/>
          <path id="Path_393" data-name="Path 393" d="M0,.267q.035,1.45.071,2.9a.277.277,0,0,0,.554,0Q.589,1.717.554.267A.277.277,0,0,0,0,.267" transform="translate(16.488 5.883)" fill="#df4028" stroke="#df4028" stroke-width="0.3"/>
          <path id="Path_394" data-name="Path 394" d="M.144,1.544a1.554,1.554,0,0,0,1.373-.018c.407-.21.578-.645.941-.9s.769.182,1.044.4a2.877,2.877,0,0,0,1.382.5,1.313,1.313,0,0,1,1.056.749,2.33,2.33,0,0,1,.132,1.332,1.752,1.752,0,0,0,.024.8,1.442,1.442,0,0,1,.166.745A2.359,2.359,0,0,1,5.3,6.435c-.507.374-1.172.184-1.759.25a4.817,4.817,0,0,0-1.8.578c-.312.173-.033.651.28.478a4.143,4.143,0,0,1,1.762-.523A3.417,3.417,0,0,0,5.452,7,3.342,3.342,0,0,0,6.606,5.788a1.675,1.675,0,0,0,.223-.778A4.761,4.761,0,0,0,6.6,4.14a3.5,3.5,0,0,1,.064-.828A2.764,2.764,0,0,0,6.6,2.542a2.043,2.043,0,0,0-.676-1.168A3.5,3.5,0,0,0,4.422.887C3.9.758,3.6.3,3.13.092A1.1,1.1,0,0,0,1.8.506a1.906,1.906,0,0,1-.561.542.967.967,0,0,1-.814.018C.1.92-.181,1.4.144,1.544" transform="translate(17.156 1.835)" fill="#df4028" stroke="#df4028" stroke-width="0.3"/>
          <path id="Path_395" data-name="Path 395" d="M.812,2.646a1.208,1.208,0,0,0,1.15.248,2.3,2.3,0,0,0,1.075-.738A4.183,4.183,0,0,1,4.1,1.23a6.513,6.513,0,0,1,1.356-.5A1.794,1.794,0,0,1,6.8.656a2.721,2.721,0,0,1,.472.458,1.829,1.829,0,0,0,.478.336c.577.281,1.642.331,1.726,1.137A6.527,6.527,0,0,1,9.314,3.9a2.481,2.481,0,0,0,.28,1.324A1.288,1.288,0,0,1,9.73,6.462a2.7,2.7,0,0,1-.971.936,1.347,1.347,0,0,1-.6.194,2.2,2.2,0,0,1-.712-.153,1.124,1.124,0,0,0-1.2.194c-.147.151-.249.329-.449.418a1.405,1.405,0,0,1-.632.087A5.156,5.156,0,0,1,3.83,7.885a3.146,3.146,0,0,1-1.279-.732,3.817,3.817,0,0,1-.726-1.142A5.389,5.389,0,0,0,.4,3.763c-.283-.216-.559.264-.28.478A5.443,5.443,0,0,1,1.4,6.409,3.557,3.557,0,0,0,3.214,8.242,5.588,5.588,0,0,0,4.6,8.628,2.592,2.592,0,0,0,5.97,8.572a1.3,1.3,0,0,0,.5-.358c.177-.2.29-.354.583-.3a3.581,3.581,0,0,0,1.389.2,2.6,2.6,0,0,0,1.244-.73,2.059,2.059,0,0,0,.716-1.21,2.651,2.651,0,0,0-.372-1.324,1.727,1.727,0,0,1-.173-.656,3.638,3.638,0,0,1,.084-.724A2.279,2.279,0,0,0,9.9,2.084a1.557,1.557,0,0,0-.882-.755c-.343-.14-.717-.212-1.046-.384C7.56.729,7.352.278,6.912.1a2.5,2.5,0,0,0-1.6.1,6.882,6.882,0,0,0-1.554.59A6.27,6.27,0,0,0,2.484,1.932c-.3.3-.882.685-1.281.323-.263-.239-.656.151-.391.391" transform="translate(18.14 7.817)" fill="#df4028" stroke="#df4028" stroke-width="0.3"/>
          <path id="Path_396" data-name="Path 396" d="M.018,3.6A1.561,1.561,0,0,0,.7,4.435a1.493,1.493,0,0,0,.463.179,1.6,1.6,0,0,0,.269.031c.051,0,.26.021.212-.032s-.025.019-.026.063a1.04,1.04,0,0,0,0,.131.847.847,0,0,0,.065.253.971.971,0,0,0,.352.425.926.926,0,0,0,.958.029,3.136,3.136,0,0,0,.727-.674,2.694,2.694,0,0,1,.846-.512,1.113,1.113,0,0,0,.652-.8c.066-.372-.071-.768.031-1.132.062-.222.189-.4.115-.646A1.59,1.59,0,0,0,4.98,1.2,12.444,12.444,0,0,0,3.825.071c-.268-.232-.662.158-.391.391.29.251.57.513.836.789q.192.2.375.407a1.083,1.083,0,0,1,.154.181c.053.1.008.168-.031.267a2.224,2.224,0,0,0-.082.959c.016.319-.015.576-.313.742a7,7,0,0,0-.739.373,4.506,4.506,0,0,0-.6.587c-.154.162-.37.384-.618.3-.348-.121-.174-.459-.3-.7-.175-.35-.539-.225-.847-.288a.987.987,0,0,1-.723-.619C.432,3.121-.1,3.265.018,3.6" transform="translate(17.18 17.782)" fill="#df4028" stroke="#df4028" stroke-width="0.3"/>
          <path id="Path_397" data-name="Path 397" d="M.187,4.942A2.131,2.131,0,0,0,1.218,7.758a2.22,2.22,0,0,0,.8.193,2.406,2.406,0,0,1,.384.025,1.051,1.051,0,0,1,.407.238,1.038,1.038,0,0,0,1.325.016c.194-.135.368-.3.569-.423a2.955,2.955,0,0,1,.878-.26,1.485,1.485,0,0,0,1.043-1.1c.221-.677.4-1.371.6-2.055l.283-.974a3.61,3.61,0,0,0,.21-.978,1.716,1.716,0,0,0-1.044-1.4A16.711,16.711,0,0,0,4.616.022c-.329-.137-.472.4-.147.534a16.07,16.07,0,0,1,1.555.751c.383.211.953.457,1.108.9a1.221,1.221,0,0,1-.056.719c-.085.307-.178.613-.267.919l-.5,1.726c-.121.415-.2,1.088-.6,1.336A2.047,2.047,0,0,1,5.04,7.1a1.867,1.867,0,0,0-.668.269c-.257.172-.63.625-.975.554-.2-.041-.35-.237-.517-.341a1.4,1.4,0,0,0-.7-.176A1.677,1.677,0,0,1,.86,6.8a1.582,1.582,0,0,1-.2-1.576C.805,4.9.329,4.615.187,4.942" transform="translate(16.423 16.305)" fill="#df4028" stroke="#df4028" stroke-width="0.3"/>
          <path id="Path_398" data-name="Path 398" d="M5.925,7.016A3.431,3.431,0,0,0,5.949,8a3.032,3.032,0,0,1,.066,1,1.046,1.046,0,0,1-.276.558c-.23.22-.461.069-.736.115s-.4.268-.62.423a1.193,1.193,0,0,1-.778.166,3.343,3.343,0,0,1-.736-.151c-.245-.073-.626-.145-.771-.377a1.4,1.4,0,0,1-.1-.7A1.706,1.706,0,0,0,1.862,8.3,1.152,1.152,0,0,0,1.281,7.8a1.138,1.138,0,0,1-.605-.433,1.789,1.789,0,0,1,.17-1.584,7.935,7.935,0,0,0,.633-1.864C1.711,2.7,1.834,1.084,3.129.5c.325-.145.044-.623-.279-.478C1.624.575,1.257,1.988,1.048,3.19a8.412,8.412,0,0,1-.628,2.2A2.839,2.839,0,0,0,.049,7.261a1.352,1.352,0,0,0,.422.715c.236.2.556.25.79.444.211.175.183.5.188.746a1.741,1.741,0,0,0,.157.823,1.258,1.258,0,0,0,.727.528,5.242,5.242,0,0,0,.894.252,1.827,1.827,0,0,0,1.692-.41c.062-.062.107-.125.195-.139a1.783,1.783,0,0,1,.3.03.962.962,0,0,0,.434-.1,1.282,1.282,0,0,0,.579-.646c.347-.781-.083-1.544.029-2.342a.287.287,0,0,0-.193-.341.279.279,0,0,0-.341.193" transform="translate(7.259 14.475)" fill="#df4028" stroke="#df4028" stroke-width="0.3"/>
          <path id="Path_399" data-name="Path 399" d="M.2.2A5.4,5.4,0,0,0,.027,2.057a3.036,3.036,0,0,0,.76,1.512,3.009,3.009,0,0,1,.411.614,5.874,5.874,0,0,1,.177.829c.179.616.783.765,1.33.918l2.115.593c.543.152,1.264.5,1.8.18A2.02,2.02,0,0,0,7.3,5.564a1.669,1.669,0,0,1,.289-.535,5.107,5.107,0,0,1,.594-.522,1.486,1.486,0,0,0,.632-1.454A2.66,2.66,0,0,0,7.549,1.521c-.291-.207-.568.273-.279.478.419.3.929.652,1.013,1.2.069.451-.268.737-.583.993a2.589,2.589,0,0,0-.794.888,4.222,4.222,0,0,1-.468,1.061.482.482,0,0,1-.506.115c-.325-.066-.645-.178-.964-.267L3.2,5.495c-.27-.076-.544-.143-.811-.231a.635.635,0,0,1-.5-.47c-.047-.213-.046-.432-.114-.64a2.342,2.342,0,0,0-.347-.65A3.8,3.8,0,0,1,.6,2.134,4.247,4.247,0,0,1,.736.346C.811,0,.278-.15.2.2" transform="translate(6.328 19.852)" fill="#df4028" stroke="#df4028" stroke-width="0.3"/>
          <path id="Path_400" data-name="Path 400" d="M.478.2.013,1.443a.278.278,0,0,0,.193.341.284.284,0,0,0,.341-.193L1.012.349A.278.278,0,0,0,.819.008.284.284,0,0,0,.478.2" transform="translate(11.865 10.969)" fill="#df4028" stroke="#df4028" stroke-width="0.3"/>
          <path id="Path_401" data-name="Path 401" d="M.037.417l.533.915a.277.277,0,1,0,.478-.279L.515.137a.28.28,0,0,0-.379-.1.282.282,0,0,0-.1.379" transform="translate(13.176 10.803)" fill="#df4028" stroke="#df4028" stroke-width="0.3"/>
          <path id="Path_402" data-name="Path 402" d="M.277.554c.047,0,.093.008.14.013L.4.566l.04.006L.5.582A2.749,2.749,0,0,1,.785.648c.09.026.177.059.265.092L1.03.731l.037.016L1.13.777c.045.021.09.044.134.068a.281.281,0,0,0,.379-.1.281.281,0,0,0-.1-.379A3.129,3.129,0,0,0,.277,0,.278.278,0,0,0,0,.277.284.284,0,0,0,.277.554" transform="translate(13.588 10.592)" fill="#df4028" stroke="#df4028" stroke-width="0.3"/>
        </g>
      </g>
      <g id="Ellipse_4951" data-name="Ellipse 4951" transform="translate(1323.409 2321.978)" fill="none" stroke="#df4028" stroke-width="2">
        <circle cx="22.681" cy="22.681" r="22.681" stroke="none"/>
        <circle cx="22.681" cy="22.681" r="21.681" fill="none"/>
      </g>
      <ellipse id="Ellipse_4952" data-name="Ellipse 4952" cx="1.378" cy="3.116" rx="1.378" ry="3.116" transform="translate(1331.523 2321.978)" fill="#0c1e3c"/>
      <ellipse id="Ellipse_4953" data-name="Ellipse 4953" cx="0.797" cy="3.116" rx="0.797" ry="3.116" transform="translate(1340.763 2317.029) rotate(-19)" fill="#0c1e3c"/>
      <path id="Path_407" data-name="Path 407" d="M1.8,0C2.464,0,3,2,3,4.461S2.464,8.922,1.8,8.922-.622,7.608.227,7.176,1.134,0,1.8,0Z" transform="matrix(0.819, -0.574, 0.574, 0.819, 1359.998, 2328.494)" fill="rgba(12,30,60,0.64)"/>
      <ellipse id="Ellipse_4955" data-name="Ellipse 4955" cx="0.817" cy="3.106" rx="0.817" ry="3.106" transform="matrix(0.819, -0.574, 0.574, 0.819, 1364.825, 2341.319)" fill="rgba(12,30,60,0.36)"/>
      <path id="Path_404" data-name="Path 404" d="M.817,0c.451,0,.817,1.391.817,3.106S1.269,6.213.817,6.213,0,4.822,0,3.106.366,0,.817,0Z" transform="translate(1325.636 2354.84) rotate(21)" fill="#0c1e3c"/>
      <ellipse id="Ellipse_4958" data-name="Ellipse 4958" cx="0.926" cy="3.161" rx="0.926" ry="3.161" transform="matrix(0.766, -0.643, 0.643, 0.766, 1343.447, 2365.494)" fill="#0c1e3c"/>
    </g>
  </g>
</svg>
